<svg xmlns="http://www.w3.org/2000/svg" version="1.1" xmlns:xlink="http://www.w3.org/1999/xlink" xmlns:svgjs="http://svgjs.dev/svgjs" width="1500" height="1425" viewBox="0 0 1500 1425"><g transform="matrix(1,0,0,1,-1.0160562182180684,0.5779884344984794)"><svg viewBox="0 0 260 247" data-background-color="#f8f8f8" preserveAspectRatio="xMidYMid meet" height="1425" width="1500" xmlns="http://www.w3.org/2000/svg" xmlns:xlink="http://www.w3.org/1999/xlink"><g id="tight-bounds" transform="matrix(1,0,0,1,0.1761449972928233,-0.099973655792013)"><svg viewBox="0 0 259.6477385915493 247.2" height="247.2" width="259.6477385915493"><g><svg viewBox="0 0 259.64773859154934 247.20000000000002" height="247.2" width="259.6477385915493"><g><svg viewBox="0 0 259.64773859154934 247.20000000000002" height="247.20000000000002" width="259.64773859154934"><g id="textblocktransform"><svg viewBox="0 0 259.64773859154934 247.20000000000002" height="247.20000000000002" width="259.64773859154934" id="textblock"><g><svg viewBox="0 0 259.64773859154934 247.20000000000002" height="247.20000000000002" width="259.64773859154934"><path d="M259.04 53.02C257.819 27.36 254.34 20.227 254.34 20.227 243.66-6.202 230.33-0.506 218.355 3.292 197.213 3.446 176.157 9.091 155.064 12.119 110.791 12.581 66.139 4.986 22.085 23.717 17.947 29.464-4.293 24.846 0.736 56.304 2.054 69.39 6.864 83.913 6.717 95.922 7.376 98.026 8.292 93.202 8.683 96.23 10.05 104.39 12.283 100.541 14.114 105.365 11.563 118.246 13.394 128.971 15.14 140.21 12.064 143.135 8.121 141.749 6.351 151.449 6.168 158.479 5.179 157.145 4.093 156.837 3.299 156.632 1.7 157.402 1.969 159.608 2.884 167.152-1.046 171.514 1.42 178.904-0.277 186.91 2.591 193.838 2.201 202.511 2.152 204.255 2.421 205.744 2.848 206.154 4.74 208.361 1.981 212.672 2.274 217.342 21.683 249.262 42.739 227.195 62.623 241.872 67.787 231.608 63.905 245.516 65.968 243.36 67.579 240.846 68.751 251.263 70.57 245.362 70.851 243.668 70.424 239.665 71.424 240.435 71.949 240.846 72.413 240.743 72.486 238.382 72.596 234.841 71.632 237.048 71.376 235.201 74.147 225.861 73.463 248.081 76.063 247.158 75.941 244.438 75.184 240.538 76.734 241.051 78.272 237.151 78.321 233.918 79.688 242.693 79.737 244.592 79.981 245.926 80.372 246.85 84.644 237.305 88.892 250.237 93.372 245.926 96.118 241.205 98.755 248.492 101.538 246.696 102.515 245.259 103.503 242.693 104.443 247.004 115.954 247.928 128.222 244.079 139.134 247.158 168.296 241.41 199.459 249.518 230.208 241.923 237.459 238.998 244.99 234.841 252.058 231.506 252.058 231.506 257.783 222.371 257.783 181.316S259.003 145.393 259.186 112.703C259.369 80.013 260.224 78.679 259.003 53.02Z" opacity="1" fill="#e10000" data-fill-palette-color="tertiary"></path><g transform="matrix(1,0,0,1,55.76832000000002,26.230666666666668)"><svg width="148.1110985915493" viewBox="2 -35.5 27 35.5" height="194.7386666666667" data-palette-color="#f8f8f8"><path d="M27.35 0L27.35 0 6.15 0Q3.7 0 2.85-0.35 2-0.7 2-1.45L2-1.45 2-33.1Q2-34.4 3.18-34.95 4.35-35.5 7.4-35.5L7.4-35.5 27.5-35.5Q28.55-35.5 28.55-32.02 28.55-28.55 28.1-26.73 27.65-24.9 26.9-24.9L26.9-24.9Q23.65-24.9 15.95-25.55L15.95-25.55 15.95-22.2Q23.35-22.5 25.6-22.5L25.6-22.5Q26.95-22.5 26.95-19.35 26.95-16.2 26.43-14.58 25.9-12.95 25-12.95L25-12.95 15.95-13.15 15.95-9.95Q24.65-10.6 27.95-10.6L27.95-10.6Q29-10.6 29-7.1 29-3.6 28.55-1.8 28.1 0 27.35 0Z" opacity="1" transform="matrix(1,0,0,1,0,0)" fill="#f8f8f8" class="wordmark-text-0" data-fill-palette-color="quaternary" id="text-0"></path></svg></g></svg></g></svg></g></svg></g><g></g></svg></g><defs></defs></svg><rect width="259.6477385915493" height="247.2" fill="none" stroke="none" visibility="hidden"></rect></g></svg></g></svg>