<svg xmlns="http://www.w3.org/2000/svg" version="1.1" xmlns:xlink="http://www.w3.org/1999/xlink" xmlns:svgjs="http://svgjs.dev/svgjs" width="308.7612359841165" height="304.915625" viewBox="0 0 1500 1500"><g transform="matrix(1,0,0,1,-0.21332335329316265,-0.21332335329350371)"><svg viewBox="0 0 334 334" data-background-color="#ffffff" preserveAspectRatio="xMidYMid meet" height="1500" width="1500" xmlns="http://www.w3.org/2000/svg" xmlns:xlink="http://www.w3.org/1999/xlink"><g id="tight-bounds" transform="matrix(1,0,0,1,0.04749999999998522,0.04750000000001364)"><svg viewBox="0 0 333.90454557049503 333.90454557049503" height="333.90454557049503" width="333.90454557049503"><g><svg></svg></g><g><svg viewBox="0 0 333.90454557049503 333.90454557049503" height="333.90454557049503" width="333.90454557049503"><g><path d="M0 166.952c0-92.205 74.747-166.952 166.952-166.952 92.205 0 166.952 74.747 166.953 166.952 0 92.205-74.747 166.952-166.953 166.953-92.205 0-166.952-74.747-166.952-166.953zM166.952 316.63c82.665 0 149.677-67.013 149.678-149.678 0-82.665-67.013-149.677-149.678-149.677-82.665 0-149.677 67.013-149.677 149.677 0 82.665 67.013 149.677 149.677 149.678z" data-fill-palette-color="tertiary" fill="#ed3b43" stroke="transparent"></path><ellipse rx="160.27418187383762" ry="160.27418187383762" cx="166.95227278524752" cy="166.95227278524752" fill="#ed3b43" stroke="transparent" stroke-width="0" fill-opacity="1" data-fill-palette-color="tertiary"></ellipse></g><g transform="matrix(1,0,0,1,94.10610499463847,71.17305217166896)"><svg viewBox="0 0 145.6923355812181 191.55844122715712" height="191.55844122715712" width="145.6923355812181"><g><svg viewBox="0 0 145.6923355812181 191.55844122715712" height="191.55844122715712" width="145.6923355812181"><g><svg viewBox="0 0 145.6923355812181 191.55844122715712" height="191.55844122715712" width="145.6923355812181"><g><svg viewBox="0 0 145.6923355812181 191.55844122715712" height="191.55844122715712" width="145.6923355812181"><g id="textblocktransform"><svg viewBox="0 0 145.6923355812181 191.55844122715712" height="191.55844122715712" width="145.6923355812181" id="textblock"><g><svg viewBox="0 0 145.6923355812181 191.55844122715712" height="191.55844122715712" width="145.6923355812181"><g transform="matrix(1,0,0,1,0,0)"><svg width="145.6923355812181" viewBox="2 -35.5 27 35.5" height="191.55844122715712" data-palette-color="#ffffff"><path d="M27.35 0L27.35 0 6.15 0Q3.7 0 2.85-0.35 2-0.7 2-1.45L2-1.45 2-33.1Q2-34.4 3.18-34.95 4.35-35.5 7.4-35.5L7.4-35.5 27.5-35.5Q28.55-35.5 28.55-32.02 28.55-28.55 28.1-26.73 27.65-24.9 26.9-24.9L26.9-24.9Q23.65-24.9 15.95-25.55L15.95-25.55 15.95-22.2Q23.35-22.5 25.6-22.5L25.6-22.5Q26.95-22.5 26.95-19.35 26.95-16.2 26.43-14.58 25.9-12.95 25-12.95L25-12.95 15.95-13.15 15.95-9.95Q24.65-10.6 27.95-10.6L27.95-10.6Q29-10.6 29-7.1 29-3.6 28.55-1.8 28.1 0 27.35 0Z" opacity="1" transform="matrix(1,0,0,1,0,0)" fill="#ffffff" class="wordmark-text-0" data-fill-palette-color="quaternary" id="text-0"></path></svg></g></svg></g></svg></g></svg></g><g></g></svg></g></svg></g></svg></g></svg></g><defs></defs></svg><rect width="333.90454557049503" height="333.90454557049503" fill="none" stroke="none" visibility="hidden"></rect></g></svg></g></svg>